<svg xmlns="http://www.w3.org/2000/svg" width="454.111" height="276.048" viewBox="0 0 454.111 276.048">
  <g id="Group_1" data-name="Group 1" transform="translate(-623.055 -377.04)">
    <g id="Group_1296" data-name="Group 1296" transform="translate(844 428)" opacity="0.5">
      <path id="Path_1" data-name="Path 1" d="M18.43,118.416a49.511,49.511,0,0,0-2.382-12.935,43.943,43.943,0,0,0-3.047,13,43.959,43.959,0,0,0-13,3.047,49.473,49.473,0,0,0,12.935,2.382,32.846,32.846,0,0,0,3.113,12.972,44.287,44.287,0,0,0,2.427-12.927A44.321,44.321,0,0,0,31.4,121.529,32.836,32.836,0,0,0,18.43,118.416Z" fill="#fff" fill-rule="evenodd"/>
      <path id="Path_2" data-name="Path 2" d="M62.745,81.453a32.956,32.956,0,0,0-1.586-8.61A29.252,29.252,0,0,0,59.131,81.5a29.249,29.249,0,0,0-8.654,2.028,32.959,32.959,0,0,0,8.61,1.586,21.861,21.861,0,0,0,2.072,8.635,29.478,29.478,0,0,0,1.615-8.605,29.48,29.48,0,0,0,8.605-1.615A21.86,21.86,0,0,0,62.745,81.453Z" fill="#fff" fill-rule="evenodd"/>
      <path id="Path_3" data-name="Path 3" d="M134.148,55.119a49.518,49.518,0,0,0-2.382-12.935,43.929,43.929,0,0,0-3.047,13,43.946,43.946,0,0,0-13,3.047,49.516,49.516,0,0,0,12.935,2.382,32.836,32.836,0,0,0,3.113,12.972,44.285,44.285,0,0,0,2.426-12.928,44.285,44.285,0,0,0,12.928-2.427A32.834,32.834,0,0,0,134.148,55.119Z" fill="#fff" fill-rule="evenodd"/>
      <path id="Path_4" data-name="Path 4" d="M128.035,184.237a72.81,72.81,0,0,0-3.505-19.03,64.619,64.619,0,0,0-4.482,19.127,64.667,64.667,0,0,0-19.128,4.483,72.853,72.853,0,0,0,19.03,3.505c.461,8.775,2.718,15.593,4.58,19.085a65.1,65.1,0,0,0,3.57-19.02,65.134,65.134,0,0,0,19.02-3.57C143.628,186.955,136.81,184.7,128.035,184.237Z" fill="#fff" fill-rule="evenodd"/>
      <circle id="Ellipse_1" data-name="Ellipse 1" cx="3.035" cy="3.035" r="3.035" transform="translate(80.853 138.396) rotate(180)" fill="#2f235a"/>
      <circle id="Ellipse_2" data-name="Ellipse 2" cx="3.035" cy="3.035" r="3.035" transform="translate(11.205 51.378) rotate(180)" fill="#fe9076"/>
      <circle id="Ellipse_3" data-name="Ellipse 3" cx="3.035" cy="3.035" r="3.035" transform="translate(163.857 126.348) rotate(180)" fill="#ffa400"/>
      <circle id="Ellipse_4" data-name="Ellipse 4" cx="3.035" cy="3.035" r="3.035" transform="translate(27.841 185.205) rotate(180)" fill="#23bb86"/>
      <path id="Path_5" data-name="Path 5" d="M15.606,35.677C22.468,26.253,41.8,6.125,64.217,1" fill="none" stroke="#fe9076" stroke-linecap="round" stroke-width="1.603"/>
      <path id="Path_6" data-name="Path 6" d="M173.627,115.178c10.141-5.748,36.058-16.1,58.593-11.5" fill="none" stroke="#ffa400" stroke-linecap="round" stroke-width="1.603"/>
      <path id="Path_7" data-name="Path 7" d="M35.222,190.986A137.394,137.394,0,0,1,61.359,224" fill="none" stroke="#23bb86" stroke-linecap="round" stroke-width="1.603"/>
    </g>
    <g id="Group_1276" data-name="Group 1276" transform="translate(623 377)" opacity="0.5">
      <path id="Path_8" data-name="Path 8" d="M129.626,71.642a29.749,29.749,0,0,1,1.433-7.782,26.439,26.439,0,0,1,1.833,7.822,26.436,26.436,0,0,1,7.822,1.833,29.8,29.8,0,0,1-7.782,1.433,19.761,19.761,0,0,1-1.873,7.8,26.625,26.625,0,0,1-1.46-7.778,26.647,26.647,0,0,1-7.778-1.46A19.757,19.757,0,0,1,129.626,71.642Z" fill="#fff" fill-rule="evenodd"/>
      <path id="Path_9" data-name="Path 9" d="M102.964,49.4a19.8,19.8,0,0,1,.954-5.18,17.62,17.62,0,0,1,1.22,5.207,17.605,17.605,0,0,1,5.207,1.22,19.837,19.837,0,0,1-5.18.954,13.161,13.161,0,0,1-1.247,5.2,17.718,17.718,0,0,1-.972-5.177,17.739,17.739,0,0,1-5.177-.972A13.15,13.15,0,0,1,102.964,49.4Z" fill="#fff" fill-rule="evenodd"/>
      <path id="Path_10" data-name="Path 10" d="M60,33.561a29.786,29.786,0,0,1,1.433-7.782A26.439,26.439,0,0,1,63.271,33.6a26.442,26.442,0,0,1,7.822,1.833,29.785,29.785,0,0,1-7.782,1.433,19.76,19.76,0,0,1-1.873,7.8,26.644,26.644,0,0,1-1.46-7.778,26.643,26.643,0,0,1-7.778-1.46A19.76,19.76,0,0,1,60,33.561Z" fill="#fff" fill-rule="evenodd"/>
      <path id="Path_11" data-name="Path 11" d="M63.682,111.243a43.823,43.823,0,0,1,2.109-11.449,38.9,38.9,0,0,1,2.7,11.508A38.9,38.9,0,0,1,80,114a43.813,43.813,0,0,1-11.45,2.108,29.072,29.072,0,0,1-2.756,11.483,39.2,39.2,0,0,1-2.148-11.443A39.207,39.207,0,0,1,52.2,114,29.074,29.074,0,0,1,63.682,111.243Z" fill="#fff" fill-rule="evenodd"/>
      <circle id="Ellipse_5" data-name="Ellipse 5" cx="1.826" cy="1.826" r="1.826" transform="translate(92.07 80.012)" fill="#2f235a"/>
      <circle id="Ellipse_6" data-name="Ellipse 6" cx="1.826" cy="1.826" r="1.826" transform="translate(133.972 27.658)" fill="#fe9076"/>
      <circle id="Ellipse_7" data-name="Ellipse 7" cx="1.826" cy="1.826" r="1.826" transform="translate(42.131 72.763)" fill="#ffa400"/>
      <circle id="Ellipse_8" data-name="Ellipse 8" cx="1.826" cy="1.826" r="1.826" transform="translate(123.964 108.174)" fill="#23bb86"/>
      <path id="Path_12" data-name="Path 12" d="M131.325,21.863C127.2,16.194,115.568,4.083,102.078,1" fill="none" stroke="#fe9076" stroke-linecap="round" stroke-width="1.603"/>
      <path id="Path_13" data-name="Path 13" d="M36.252,69.695c-6.1-3.458-21.694-9.684-35.253-6.92" fill="none" stroke="#ffa400" stroke-linecap="round" stroke-width="1.603"/>
      <path id="Path_14" data-name="Path 14" d="M119.523,115.3A82.631,82.631,0,0,0,103.8,135.167" fill="none" stroke="#23bb86" stroke-linecap="round" stroke-width="1.603"/>
    </g>
  </g>
</svg>
