<svg width="102" height="15" viewBox="0 0 102 15" fill="none" xmlns="http://www.w3.org/2000/svg">
<path d="M6.02206 11.7601C4.97673 11.7601 4.0114 11.5041 3.12606 10.9921C2.2514 10.4694 1.55273 9.77076 1.03006 8.8961C0.518063 8.01076 0.262063 7.04543 0.262063 6.0001C0.262063 4.95476 0.518063 3.99476 1.03006 3.1201C1.55273 2.23476 2.2514 1.5361 3.12606 1.0241C4.0114 0.501431 4.97673 0.240097 6.02206 0.240097C7.0674 0.240097 8.0274 0.501431 8.90206 1.0241C9.7874 1.5361 10.4861 2.23476 10.9981 3.1201C11.5207 3.99476 11.7821 4.95476 11.7821 6.0001C11.7821 7.04543 11.5207 8.01076 10.9981 8.8961C10.4861 9.77076 9.7874 10.4694 8.90206 10.9921C8.0274 11.5041 7.0674 11.7601 6.02206 11.7601ZM6.02206 10.7521C6.8754 10.7521 7.6594 10.5388 8.37406 10.1121C9.08873 9.67476 9.65406 9.09343 10.0701 8.3681C10.4967 7.64276 10.7101 6.85343 10.7101 6.0001C10.7101 5.14676 10.4967 4.35743 10.0701 3.6321C9.65406 2.8961 9.0834 2.31476 8.35806 1.8881C7.6434 1.45076 6.86473 1.2321 6.02206 1.2321C5.1794 1.2321 4.3954 1.45076 3.67006 1.8881C2.9554 2.31476 2.39006 2.8961 1.97406 3.6321C1.55806 4.35743 1.35006 5.14676 1.35006 6.0001C1.35006 6.85343 1.55806 7.64276 1.97406 8.3681C2.39006 9.09343 2.9554 9.67476 3.67006 10.1121C4.3954 10.5388 5.1794 10.7521 6.02206 10.7521ZM6.02206 9.0721C5.23273 9.0721 4.6034 8.8321 4.13406 8.3521C3.66473 7.8721 3.4194 7.26943 3.39806 6.5441L3.38206 5.9841L3.39806 5.4241C3.4194 4.69876 3.66473 4.0961 4.13406 3.6161C4.6034 3.1361 5.23273 2.8961 6.02206 2.8961C6.57673 2.8961 7.04606 2.98676 7.43006 3.1681C7.82473 3.34943 8.11806 3.57876 8.31006 3.8561C8.51273 4.12276 8.6194 4.39476 8.63006 4.6721C8.63006 4.77876 8.59806 4.8641 8.53406 4.9281C8.47006 4.9921 8.38473 5.0241 8.27806 5.0241H7.76606C7.6594 5.0241 7.5794 4.99743 7.52606 4.9441C7.47273 4.89076 7.42473 4.8161 7.38206 4.7201C7.28606 4.47476 7.1314 4.2881 6.91806 4.1601C6.70473 4.0321 6.40606 3.9681 6.02206 3.9681C5.51006 3.9681 5.1474 4.1121 4.93406 4.4001C4.7314 4.6881 4.6194 5.03476 4.59806 5.4401L4.58206 5.9841L4.59806 6.5281C4.6194 6.93343 4.7314 7.2801 4.93406 7.5681C5.1474 7.8561 5.51006 8.0001 6.02206 8.0001C6.40606 8.0001 6.70473 7.9361 6.91806 7.8081C7.1314 7.6801 7.28606 7.49343 7.38206 7.2481C7.42473 7.1521 7.47273 7.07743 7.52606 7.0241C7.5794 6.97076 7.6594 6.9441 7.76606 6.9441H8.27806C8.38473 6.9441 8.47006 6.9761 8.53406 7.0401C8.59806 7.1041 8.63006 7.18943 8.63006 7.2961C8.6194 7.57343 8.51273 7.85076 8.31006 8.1281C8.11806 8.39476 7.82473 8.61876 7.43006 8.8001C7.04606 8.98143 6.57673 9.0721 6.02206 9.0721ZM13.7848 11.6001C13.6781 11.6001 13.5875 11.5681 13.5128 11.5041C13.4488 11.4294 13.4168 11.3388 13.4168 11.2321V10.7201C13.4168 10.4748 13.5501 10.2401 13.8168 10.0161L17.2088 6.6241C18.0301 5.94143 18.5955 5.38676 18.9048 4.9601C19.2141 4.52276 19.3688 4.0641 19.3688 3.5841C19.3688 2.96543 19.1928 2.4801 18.8408 2.1281C18.4995 1.7761 17.9981 1.6001 17.3368 1.6001C16.7181 1.6001 16.2221 1.78676 15.8488 2.1601C15.4755 2.52276 15.2461 3.0081 15.1608 3.6161C15.1395 3.7441 15.0861 3.8401 15.0008 3.9041C14.9261 3.95743 14.8408 3.9841 14.7448 3.9841H13.9128C13.8168 3.9841 13.7368 3.95743 13.6728 3.9041C13.6088 3.8401 13.5768 3.76543 13.5768 3.6801C13.5981 3.1041 13.7528 2.55476 14.0408 2.0321C14.3288 1.49876 14.7501 1.06676 15.3048 0.736097C15.8701 0.394764 16.5475 0.224097 17.3368 0.224097C18.5421 0.224097 19.4488 0.538764 20.0568 1.1681C20.6755 1.78676 20.9848 2.5761 20.9848 3.5361C20.9848 4.2081 20.8141 4.8161 20.4728 5.3601C20.1421 5.89343 19.6248 6.46943 18.9208 7.0881L15.8488 10.2081H20.8408C20.9581 10.2081 21.0488 10.2454 21.1128 10.3201C21.1875 10.3841 21.2248 10.4694 21.2248 10.5761V11.2321C21.2248 11.3388 21.1875 11.4294 21.1128 11.5041C21.0381 11.5681 20.9475 11.6001 20.8408 11.6001H13.7848ZM27.0954 11.7601C25.7194 11.7601 24.7114 11.3601 24.0714 10.5601C23.4314 9.7601 23.0901 8.70943 23.0474 7.4081C23.0368 7.1201 23.0314 6.6561 23.0314 6.0161C23.0314 5.35476 23.0368 4.87476 23.0474 4.5761C23.0794 3.2961 23.4208 2.2561 24.0714 1.4561C24.7221 0.645431 25.7301 0.240097 27.0954 0.240097C28.4714 0.240097 29.4848 0.645431 30.1354 1.4561C30.7861 2.2561 31.1274 3.2961 31.1594 4.5761C31.1808 5.17343 31.1914 5.65343 31.1914 6.0161C31.1914 6.3681 31.1808 6.8321 31.1594 7.4081C31.1168 8.70943 30.7754 9.7601 30.1354 10.5601C29.4954 11.3601 28.4821 11.7601 27.0954 11.7601ZM27.0954 10.3841C27.8954 10.3841 28.4981 10.1174 28.9034 9.5841C29.3194 9.05076 29.5381 8.29876 29.5594 7.3281C29.5808 6.70943 29.5914 6.26143 29.5914 5.9841C29.5914 5.68543 29.5808 5.2481 29.5594 4.6721C29.5381 3.7121 29.3248 2.9601 28.9194 2.4161C28.5141 1.8721 27.9061 1.6001 27.0954 1.6001C26.2954 1.6001 25.6874 1.8721 25.2714 2.4161C24.8661 2.9601 24.6528 3.7121 24.6314 4.6721L24.6154 5.9841L24.6314 7.3281C24.6528 8.29876 24.8661 9.05076 25.2714 9.5841C25.6874 10.1174 26.2954 10.3841 27.0954 10.3841ZM33.3317 11.6001C33.225 11.6001 33.1344 11.5681 33.0597 11.5041C32.9957 11.4294 32.9637 11.3388 32.9637 11.2321V10.7201C32.9637 10.4748 33.097 10.2401 33.3637 10.0161L36.7557 6.6241C37.577 5.94143 38.1424 5.38676 38.4517 4.9601C38.761 4.52276 38.9157 4.0641 38.9157 3.5841C38.9157 2.96543 38.7397 2.4801 38.3877 2.1281C38.0464 1.7761 37.545 1.6001 36.8837 1.6001C36.265 1.6001 35.769 1.78676 35.3957 2.1601C35.0224 2.52276 34.793 3.0081 34.7077 3.6161C34.6864 3.7441 34.633 3.8401 34.5477 3.9041C34.473 3.95743 34.3877 3.9841 34.2917 3.9841H33.4597C33.3637 3.9841 33.2837 3.95743 33.2197 3.9041C33.1557 3.8401 33.1237 3.76543 33.1237 3.6801C33.145 3.1041 33.2997 2.55476 33.5877 2.0321C33.8757 1.49876 34.297 1.06676 34.8517 0.736097C35.417 0.394764 36.0944 0.224097 36.8837 0.224097C38.089 0.224097 38.9957 0.538764 39.6037 1.1681C40.2224 1.78676 40.5317 2.5761 40.5317 3.5361C40.5317 4.2081 40.361 4.8161 40.0197 5.3601C39.689 5.89343 39.1717 6.46943 38.4677 7.0881L35.3957 10.2081H40.3877C40.505 10.2081 40.5957 10.2454 40.6597 10.3201C40.7344 10.3841 40.7717 10.4694 40.7717 10.5761V11.2321C40.7717 11.3388 40.7344 11.4294 40.6597 11.5041C40.585 11.5681 40.4944 11.6001 40.3877 11.6001H33.3317ZM45.9863 11.6001C45.8796 11.6001 45.789 11.5681 45.7143 11.5041C45.6503 11.4294 45.6183 11.3388 45.6183 11.2321V2.2721L42.9623 4.3201C42.8876 4.3841 42.8076 4.4161 42.7223 4.4161C42.6263 4.4161 42.5356 4.36276 42.4503 4.2561L42.0343 3.7281C41.981 3.65343 41.9543 3.57876 41.9543 3.5041C41.9543 3.3761 42.0076 3.27476 42.1143 3.2001L45.6023 0.512097C45.7196 0.43743 45.8583 0.400097 46.0183 0.400097H46.8343C46.941 0.400097 47.0263 0.43743 47.0903 0.512097C47.165 0.576097 47.2023 0.66143 47.2023 0.768097V11.2321C47.2023 11.3388 47.165 11.4294 47.0903 11.5041C47.0263 11.5681 46.941 11.6001 46.8343 11.6001H45.9863ZM50.1741 11.6001C50.0674 11.6001 49.9767 11.5681 49.9021 11.5041C49.8381 11.4294 49.8061 11.3388 49.8061 11.2321V0.784097C49.8061 0.666764 49.8381 0.576097 49.9021 0.512097C49.9767 0.43743 50.0674 0.400097 50.1741 0.400097H50.9741C51.1447 0.400097 51.2834 0.48543 51.3901 0.656097L54.7661 7.1201L58.1741 0.656097C58.1954 0.592097 58.2381 0.53343 58.3021 0.480097C58.3767 0.426764 58.4674 0.400097 58.5741 0.400097H59.3581C59.4754 0.400097 59.5661 0.43743 59.6301 0.512097C59.7047 0.576097 59.7421 0.666764 59.7421 0.784097V11.2321C59.7421 11.3388 59.7047 11.4294 59.6301 11.5041C59.5554 11.5681 59.4647 11.6001 59.3581 11.6001H58.5741C58.4674 11.6001 58.3767 11.5681 58.3021 11.5041C58.2381 11.4294 58.2061 11.3388 58.2061 11.2321V3.3601L55.5341 8.5761C55.4274 8.8001 55.2567 8.9121 55.0221 8.9121H54.5261C54.2914 8.9121 54.1207 8.8001 54.0141 8.5761L51.3261 3.3601V11.2321C51.3261 11.3388 51.2887 11.4294 51.2141 11.5041C51.1501 11.5681 51.0647 11.6001 50.9581 11.6001H50.1741ZM63.7572 14.6401C63.6719 14.6401 63.5972 14.6081 63.5332 14.5441C63.4692 14.4801 63.4372 14.4054 63.4372 14.3201C63.4372 14.2454 63.4639 14.1494 63.5172 14.0321L64.7492 11.1041L61.6932 3.8881C61.6399 3.74943 61.6132 3.65876 61.6132 3.6161C61.6132 3.5201 61.6452 3.4401 61.7092 3.3761C61.7732 3.3121 61.8532 3.2801 61.9492 3.2801H62.7332C62.9039 3.2801 63.0319 3.37076 63.1172 3.5521L65.5492 9.3761L68.0452 3.5521C68.1305 3.37076 68.2639 3.2801 68.4452 3.2801H69.1972C69.2932 3.2801 69.3732 3.3121 69.4372 3.3761C69.5012 3.4401 69.5332 3.51476 69.5332 3.6001C69.5332 3.6321 69.5065 3.7281 69.4532 3.8881L64.9092 14.3681C64.8239 14.5494 64.6905 14.6401 64.5092 14.6401H63.7572ZM74.4573 11.6001C74.148 11.6001 73.9453 11.4508 73.8493 11.1521L70.4253 0.880097L70.3933 0.736097C70.3933 0.640097 70.4253 0.560097 70.4893 0.496098C70.5533 0.432097 70.6333 0.400097 70.7293 0.400097H72.1373C72.276 0.400097 72.3826 0.43743 72.4573 0.512097C72.5426 0.576097 72.6013 0.656097 72.6333 0.752097L75.3373 8.9921L78.0413 0.752097C78.0626 0.666764 78.116 0.586764 78.2013 0.512097C78.2866 0.43743 78.3986 0.400097 78.5373 0.400097H79.9453C80.0306 0.400097 80.1053 0.432097 80.1693 0.496098C80.244 0.560097 80.2813 0.640097 80.2813 0.736097L80.2493 0.880097L76.8253 11.1521C76.7293 11.4508 76.5266 11.6001 76.2173 11.6001H74.4573ZM82.3586 11.6001C82.2519 11.6001 82.1612 11.5628 82.0866 11.4881C82.0119 11.4134 81.9746 11.3228 81.9746 11.2161V0.800097C81.9746 0.682764 82.0066 0.586764 82.0706 0.512097C82.1452 0.43743 82.2412 0.400097 82.3586 0.400097H86.6466C87.9266 0.400097 88.9346 0.704097 89.6706 1.3121C90.4066 1.90943 90.7746 2.78943 90.7746 3.9521C90.7746 5.11476 90.4066 5.99476 89.6706 6.5921C88.9452 7.17876 87.9372 7.4721 86.6466 7.4721H84.2626V11.2161C84.2626 11.3228 84.2252 11.4134 84.1506 11.4881C84.0866 11.5628 83.9959 11.6001 83.8786 11.6001H82.3586ZM86.5666 5.6961C87.1852 5.6961 87.6599 5.5521 87.9906 5.2641C88.3212 4.96543 88.4866 4.5281 88.4866 3.9521C88.4866 3.39743 88.3266 2.96543 88.0066 2.6561C87.6866 2.3361 87.2066 2.1761 86.5666 2.1761H84.2306V5.6961H86.5666ZM92.9054 11.6001C92.7988 11.6001 92.7081 11.5628 92.6334 11.4881C92.5588 11.4134 92.5214 11.3228 92.5214 11.2161V0.800097C92.5214 0.682764 92.5534 0.586764 92.6174 0.512097C92.6921 0.43743 92.7881 0.400097 92.9054 0.400097H94.1374C94.2654 0.400097 94.3614 0.426764 94.4254 0.480097C94.4894 0.522764 94.5481 0.58143 94.6014 0.656097L99.2094 7.8241V0.800097C99.2094 0.682764 99.2414 0.586764 99.3054 0.512097C99.3801 0.43743 99.4761 0.400097 99.5934 0.400097H100.937C101.055 0.400097 101.151 0.43743 101.225 0.512097C101.3 0.586764 101.337 0.682764 101.337 0.800097V11.2001C101.337 11.3174 101.3 11.4134 101.225 11.4881C101.151 11.5628 101.06 11.6001 100.953 11.6001H99.7054C99.5241 11.6001 99.3694 11.5148 99.2414 11.3441L94.6494 4.3361V11.2161C94.6494 11.3334 94.6121 11.4294 94.5374 11.5041C94.4628 11.5681 94.3668 11.6001 94.2494 11.6001H92.9054Z" fill="#AFB5C0"/>
</svg>
